<?xml version="1.0" standalone="no"?>
<!DOCTYPE svg PUBLIC "-//W3C//DTD SVG 1.1//EN" "http://www.w3.org/Graphics/SVG/1.1/DTD/svg11.dtd">
<svg t="1549446243448" class="icon" style="" viewBox="0 0 1024 1024" version="1.1" xmlns="http://www.w3.org/2000/svg" p-id="1283" xmlns:xlink="http://www.w3.org/1999/xlink" width="200" height="200">
  <defs>
    <style type="text/css"></style>
  </defs>
  <path d="M728 1003.2l-348-175.2c-10.4-5.6-15.2-18.4-9.6-28.8l248.8-492.8c5.6-10.4 18.4-15.2 28.8-9.6L996 472c10.4 5.6 15.2 18.4 9.6 28.8l-248.8 492.8c-4.8 10.4-18.4 14.4-28.8 9.6z" fill="#C32A1F" p-id="1284"></path>
  <path d="M737.6 1008.8c-4 0-8-0.8-11.2-2.4l-348-175.2c-12.8-6.4-17.6-21.6-11.2-34.4L616 304c6.4-12.8 21.6-17.6 34.4-11.2l348 175.2c12.8 6.4 17.6 21.6 11.2 34.4l-248.8 492.8c-4.8 8.8-13.6 13.6-23.2 13.6zM638.4 297.6c-6.4 0-12.8 3.2-16 9.6L373.6 800c-4 8.8-0.8 19.2 8 24l348 175.2c8.8 4 19.2 0.8 24-8l248.8-493.6c4-8.8 0.8-19.2-8-24L646.4 299.2c-2.4-1.6-5.6-1.6-8-1.6z" fill="#600F13" p-id="1285"></path>
  <path d="M1000.8 474.4L643.2 293.6c-8-1.6-16 0.8-20.8 7.2-42.4 102.4 1.6 222.4 104 274.4 101.6 51.2 224.8 15.2 281.6-80 1.6-8-1.6-16-7.2-20.8z" fill="#9C1F24" p-id="1286"></path>
  <path d="M996 471.2L648 295.2c-8-4-17.6-2.4-24.8 3.2-36.8 100.8 7.2 216 106.4 266.4s218.4 17.6 277.6-72.8c1.6-8-3.2-16.8-11.2-20.8z" fill="#AA1F24" p-id="1287"></path>
  <path d="M649.6 725.6m-94.4 0a94.4 94.4 0 1 0 188.8 0 94.4 94.4 0 1 0-188.8 0Z" fill="#F4D31F" p-id="1288"></path>
  <path d="M649.6 725.6m-81.6 0a81.6 81.6 0 1 0 163.2 0 81.6 81.6 0 1 0-163.2 0Z" fill="#F5AB16" p-id="1289"></path>
  <path d="M648.8 717.6c-1.6-0.8-2.4-0.8-3.2-0.8-0.8 0-1.6-0.8-2.4-0.8-0.8 0-0.8-0.8-1.6-0.8s-0.8-0.8-1.6-0.8c-0.8-0.8-1.6-0.8-1.6-0.8-0.8 0-0.8-0.8-0.8-0.8s-0.8-0.8-0.8-1.6v-1.6c0-1.6 0-4-0.8-6.4 0-2.4-0.8-4.8-0.8-8l-4 4c-1.6 1.6-3.2 1.6-4.8 2.4-1.6 0.8-3.2 0.8-5.6 0.8-1.6 0-4 0-6.4-0.8-1.6 0-2.4-0.8-2.4-1.6s0.8-0.8 2.4-0.8h5.6c1.6 0 4-0.8 5.6-1.6 1.6-0.8 3.2-1.6 4.8-3.2 1.6-1.6 3.2-3.2 4-4.8-0.8 0-1.6-0.8-2.4-0.8-0.8 0-1.6 0-1.6-0.8-0.8 0-1.6 0-2.4-0.8-0.8 0-0.8 0-1.6-0.8l-0.8-0.8s0-0.8-0.8-0.8c0-0.8-0.8-0.8-0.8-1.6v-0.8h0.8s0.8 0 1.6 0.8 2.4 0.8 4 1.6 3.2 0.8 4.8 1.6l2.4-4.8c0.8-1.6 0.8-2.4 1.6-3.2 0-0.8 0.8-1.6 0.8-2.4v-1.6-2.4c0-0.8 0-0.8 0.8-0.8s0.8 0 1.6 0.8 1.6 0.8 2.4 2.4l1.6 1.6c0 0.8 0.8 0.8 0.8 1.6v0.8l-0.8 0.8-0.8 0.8s-0.8 0.8-0.8 1.6c-0.8 0.8-0.8 1.6-1.6 2.4-0.8 0.8-1.6 2.4-2.4 4 1.6 0 2.4 0.8 3.2 0.8 0.8 0 1.6 0.8 2.4 0.8 0.8 0 2.4 0 3.2 0.8s1.6 0.8 1.6 0.8c0.8 0 0.8 0.8 1.6 0.8 0 0 0.8 0.8 0.8 1.6 0.8 1.6 0.8 2.4 0.8 3.2-0.8 0-1.6 0-4-0.8l-4.8-2.4c-1.6-0.8-4-1.6-5.6-2.4 0 0 0 0.8-0.8 0.8 0 0 0 0.8-0.8 0.8 0.8 3.2 0.8 5.6 1.6 8 0.8 2.4 1.6 4 2.4 6.4 0.8 1.6 2.4 3.2 3.2 4.8 1.6 1.6 2.4 3.2 4 4.8 0.8 1.6 1.6 2.4 1.6 2.4 0-1.6-0.8-1.6-2.4-1.6zM691.2 728.8c-0.8 0-2.4 0-3.2 0.8s-2.4 0.8-3.2 1.6c0.8 1.6 0.8 2.4 0.8 2.4-0.8 0.8-1.6 0.8-2.4 0-0.8 0-1.6-0.8-2.4-1.6s-2.4-0.8-3.2-1.6c-0.8-0.8-2.4-0.8-4-1.6-1.6 0-3.2-0.8-4-0.8-0.8 0.8-1.6 1.6-2.4 1.6-0.8 0-0.8-0.8-0.8-2.4v-0.8c0-0.8 0-0.8 0.8-2.4 0-0.8 0-0.8 0.8-1.6 0-0.8 0-1.6 0.8-2.4s0-1.6 0-2.4v-1.6-1.6s0-0.8 0.8-0.8h1.6c0.8 0 1.6 0.8 2.4 1.6 1.6 0.8 2.4 0.8 4 1.6s3.2 0.8 4 1.6c1.6 0.8 2.4 0.8 4 0.8s2.4 0.8 2.4 0.8h0.8s0.8 0 0.8 0.8l0.8 0.8c0 0.8 0.8 0.8 0.8 1.6 0.8 1.6 1.6 2.4 1.6 3.2 0 0.8 0.8 1.6 0.8 1.6s0 0.8-0.8 0.8h-1.6z m11.2-18.4c0.8 1.6 0.8 2.4 0.8 3.2s-1.6 0-4-0.8c-0.8-0.8-1.6-0.8-2.4-1.6-0.8 0-1.6-0.8-2.4-1.6-0.8-0.8-1.6-0.8-2.4-1.6-0.8-0.8-2.4-0.8-3.2-1.6l-3.2 5.6c0.8 0 1.6 0.8 2.4 0.8 0.8 0 1.6 0 1.6 0.8 1.6 0 2.4 0.8 3.2 0.8 0.8 0.8 0.8 0.8 1.6 2.4 0.8 1.6 0.8 2.4 0 2.4s-1.6 0-4-1.6c-0.8 0-1.6-0.8-2.4-0.8s-1.6-0.8-3.2-1.6-2.4-0.8-4-1.6-3.2-0.8-4-1.6c-0.8 0-0.8 0-1.6-0.8-0.8 0-0.8 0-0.8-0.8 0 0-0.8 0-0.8-0.8 0 0 0-0.8-0.8-0.8-0.8-1.6-0.8-1.6-0.8-2.4 0 0 0.8 0 2.4 0.8 0.8 0 1.6 0.8 3.2 1.6s3.2 0.8 4.8 1.6l3.2-5.6c-1.6-0.8-3.2-0.8-4.8-1.6-1.6-0.8-3.2-0.8-4-0.8-0.8 0-1.6-0.8-1.6-0.8-0.8 0-0.8 0-1.6-0.8l-0.8-0.8s-0.8-0.8-0.8-1.6c-0.8-1.6-0.8-2.4-0.8-2.4s0.8 0 2.4 0.8c0 0 0.8 0.8 1.6 0.8s1.6 0.8 2.4 0.8c0.8 0 2.4 0.8 4 1.6s3.2 1.6 5.6 2.4c0.8-1.6 0.8-2.4 1.6-3.2 0-0.8 0.8-1.6 0.8-2.4v-1.6-1.6-1.6s0-0.8 0.8-0.8c0 0 0.8 0 1.6 0.8 0.8 0 1.6 0.8 2.4 1.6l2.4 2.4c0.8 0.8 0.8 0.8 0.8 1.6s0 0.8-0.8 0.8-0.8 0.8-1.6 0.8-0.8 0.8-1.6 1.6-0.8 1.6-1.6 3.2c1.6 0.8 3.2 0.8 4.8 1.6 1.6 0 2.4 0.8 3.2 0.8 0.8 0 2.4 0.8 3.2 0.8-1.6 1.6-1.6 2.4-0.8 3.2z m-19.2 16l0.8-0.8s0-0.8 0.8-0.8h-0.8s-0.8-0.8-1.6-0.8-1.6-0.8-3.2-1.6-2.4-0.8-3.2-1.6c-1.6-0.8-2.4-0.8-3.2-1.6 0 0.8-0.8 2.4-0.8 3.2 0 0.8-0.8 2.4-0.8 3.2 0.8 0 1.6 0.8 2.4 0.8 0.8 0 1.6 0.8 2.4 0.8 0.8 0 1.6 0.8 2.4 0.8 0.8 0 1.6 0.8 2.4 0.8 0.8 0 0.8-0.8 1.6-0.8 0-0.8 0.8-1.6 0.8-1.6z" fill="#C32A1F" p-id="1290"></path>
  <path d="M623.2 769.6c-1.6-0.8-2.4-0.8-3.2-0.8-0.8 0-1.6-0.8-1.6-0.8-0.8 0-0.8-0.8-1.6-0.8s-0.8-0.8-1.6-0.8c-0.8-0.8-1.6-0.8-1.6-0.8l-0.8-0.8s-0.8-0.8-0.8-1.6v-1.6c0-1.6 0-4-0.8-6.4s-0.8-4.8-0.8-8l-4 4-4.8 2.4c-1.6 0.8-3.2 0.8-5.6 0.8-1.6 0-4 0-6.4-0.8-1.6 0-2.4-0.8-2.4-1.6s0.8-0.8 2.4-0.8c1.6 0 4 0 5.6-0.8 1.6 0 4-0.8 5.6-1.6 1.6-0.8 3.2-1.6 4.8-3.2 1.6-1.6 3.2-3.2 4-4.8-0.8 0-1.6-0.8-2.4-0.8-0.8 0-1.6 0-1.6-0.8-0.8 0-1.6 0-2.4-0.8-0.8 0-0.8 0-1.6-0.8l-0.8-0.8s0-0.8-0.8-0.8c0-0.8-0.8-0.8-0.8-1.6v-0.8h0.8s0.8 0 1.6 0.8 2.4 0.8 4 1.6 3.2 0.8 4.8 1.6l2.4-4.8c0.8-1.6 0.8-2.4 1.6-3.2 0-0.8 0.8-1.6 0.8-2.4v-1.6-2.4c0-0.8 0-0.8 0.8-0.8 0 0 0.8 0 1.6 0.8s1.6 0.8 2.4 2.4l1.6 1.6s0.8 0.8 0.8 1.6v0.8l-0.8 0.8-0.8 0.8s-0.8 0.8-0.8 1.6-0.8 1.6-1.6 2.4c-0.8 0.8-1.6 2.4-2.4 4 1.6 0 2.4 0.8 3.2 0.8 0.8 0 1.6 0.8 2.4 0.8 0.8 0 2.4 0 3.2 0.8 0.8 0 1.6 0.8 1.6 0.8 0.8 0 0.8 0.8 1.6 0.8 0 0 0.8 0.8 0.8 1.6 0.8 1.6 0.8 2.4 0.8 3.2-0.8 0-1.6 0-4-0.8l-4.8-2.4c-1.6-0.8-4-1.6-5.6-2.4 0 0 0 0.8-0.8 0.8 0 0 0 0.8-0.8 0.8 0.8 3.2 0.8 5.6 1.6 8s1.6 4 2.4 6.4c0.8 1.6 2.4 3.2 3.2 4.8 1.6 1.6 2.4 3.2 4 4.8 0.8 1.6 1.6 2.4 1.6 2.4-1.6 0-2.4 0-3.2-0.8zM660.8 760c0.8 0.8 0.8 1.6 0 1.6 0 0-1.6 0-3.2-0.8-0.8 0-1.6-0.8-2.4-0.8h-0.8s-0.8 0.8-0.8 1.6-0.8 0.8-0.8 1.6c1.6 0.8 3.2 1.6 3.2 3.2 0.8 0.8 0.8 2.4 0 3.2 0 0.8-0.8 0.8-0.8 0.8l-0.8 0.8h-0.8s-0.8-0.8-0.8-1.6 0-0.8-0.8-1.6c0-0.8 0-1.6-0.8-2.4-0.8 1.6-1.6 2.4-2.4 4l-2.4 4.8c0 0.8-0.8 1.6-0.8 1.6s-0.8 0.8-0.8 1.6l-0.8 0.8-0.8 0.8c-0.8 0.8-2.4 0.8-2.4 0.8s-0.8-1.6-0.8-3.2c0-0.8 0-1.6 0.8-2.4 0-0.8 0.8-1.6 1.6-2.4l2.4-2.4c0.8-1.6 1.6-3.2 3.2-5.6-0.8 0.8-2.4 1.6-3.2 1.6-0.8 0.8-2.4 0.8-3.2 0.8-0.8 0-2.4 0.8-3.2 0.8h-4c-1.6 0-3.2 0-3.2-0.8s0.8-0.8 3.2-1.6l7.2-2.4c2.4-1.6 4.8-2.4 6.4-4-1.6 0-3.2-0.8-4.8-0.8h-1.6-0.8l-0.8-0.8s0-0.8-0.8-1.6c0.8-1.6 0.8-2.4 0.8-2.4s0.8 0 2.4 0.8c0.8 0 1.6 0.8 2.4 0.8 0.8 0 1.6 0.8 2.4 0.8 0.8 0 1.6 0.8 2.4 0.8 0.8 0 1.6 0.8 2.4 0.8 0.8-1.6 1.6-2.4 1.6-3.2 0-0.8 0.8-1.6 0.8-1.6-0.8 0-1.6 0-1.6-0.8-0.8 0-0.8 0-1.6-0.8-1.6-0.8-2.4-0.8-2.4-1.6s0.8 0 2.4-0.8h6.4c0.8 0 0.8 0 1.6-0.8 0 0 0.8 0 0.8-0.8 0.8-0.8 0.8-0.8 1.6-0.8s1.6 0.8 2.4 2.4c0.8 0.8 0.8 1.6 1.6 2.4v1.6c0 0.8 0 0.8-0.8 0.8h-1.6c-0.8 0-0.8 0-2.4-0.8h-2.4c0.8 0.8 0.8 1.6 0.8 1.6 0 0.8-0.8 0.8-0.8 0.8l-0.8 0.8c0 0.8-0.8 0.8-0.8 1.6 1.6 0 3.2 0.8 3.2 0.8 0 0.8 0.8 1.6 0.8 2.4z m7.2 24c-0.8 1.6-1.6 2.4-2.4 4-0.8 0.8-1.6 1.6-3.2 2.4-1.6 0.8-2.4 0.8-3.2 0.8-0.8 0-0.8-0.8-0.8-1.6v-3.2c0-0.8-0.8-2.4-0.8-4 0-0.8-0.8-1.6-0.8-1.6v-0.8h0.8c0.8 0 0.8 0.8 1.6 1.6s0.8 0.8 1.6 0.8h1.6s0-0.8 0.8-0.8c0.8-0.8 0.8-1.6 1.6-2.4 0.8-0.8 0.8-1.6 1.6-2.4 0.8-0.8 0.8-2.4 1.6-3.2 0.8-1.6 1.6-3.2 2.4-5.6 0.8-2.4 2.4-4.8 3.2-5.6 0.8-1.6 1.6-2.4 1.6-3.2s0.8-1.6 0.8-2.4v-1.6c0-1.6 0-2.4 0.8-2.4s1.6 0.8 3.2 2.4c0.8 0.8 0.8 1.6 1.6 1.6 0 0.8 0.8 0.8 0.8 1.6v0.8l-0.8 0.8-0.8 0.8s-0.8 0.8-0.8 1.6-0.8 1.6-1.6 2.4-1.6 2.4-2.4 4.8c-0.8 2.4-2.4 4-2.4 5.6-0.8 1.6-1.6 2.4-1.6 4-0.8 0.8-0.8 1.6-0.8 2.4-3.2 0.8-3.2 1.6-3.2 2.4z m0.8-20.8c-0.8 0-0.8 0 0 0-0.8 0.8-0.8 0.8-0.8 1.6 0 0-0.8 0.8-0.8 1.6s-0.8 1.6-0.8 2.4c-0.8 0.8-0.8 1.6-1.6 2.4s-0.8 0.8-0.8 1.6l-0.8 0.8-0.8 0.8c-0.8 0.8-1.6 1.6-2.4 0.8-0.8 0-0.8-0.8-0.8-2.4v-2.4c0-0.8 0.8-0.8 0.8-1.6l0.8-0.8 0.8-0.8 0.8-0.8s0.8-0.8 0.8-1.6c0.8-0.8 0.8-1.6 0.8-2.4s0.8-0.8 0.8-1.6V760v-0.8-1.6s0-0.8 0.8-0.8c0 0 0.8 0 0.8 0.8 0.8 0 0.8 0.8 1.6 1.6l1.6 1.6c0 0.8 0.8 0.8 0.8 0.8v0.8c-1.6 0-1.6 0.8-1.6 0.8z" fill="#C32A1F" p-id="1291"></path>
  <path d="M819.2 869.6L260 1008c-16.8 4-34.4-6.4-38.4-23.2l-196-792c-4.8-16.8 5.6-34.4 22.4-38.4L607.2 16c16.8-4 34.4 6.4 38.4 23.2l196 792c4.8 16.8-5.6 34.4-22.4 38.4z" fill="#C32A1F" p-id="1292"></path>
  <path d="M252 1013.6c-6.4 0-12.8-1.6-18.4-4.8-8-4.8-14.4-12.8-16-22.4l-196-792c-2.4-9.6-0.8-19.2 4-27.2s12.8-14.4 22.4-16L606.4 12c9.6-2.4 19.2-0.8 27.2 4s14.4 12.8 16 22.4l196 792c4.8 19.2-7.2 39.2-26.4 44l-559.2 138.4c-1.6 0-4.8 0.8-8 0.8zM615.2 18.4c-2.4 0-4.8 0-6.4 0.8L49.6 158.4c-7.2 1.6-13.6 6.4-17.6 12.8s-4.8 13.6-3.2 20.8l196 792c1.6 7.2 6.4 13.6 12.8 17.6 6.4 4 13.6 4.8 20.8 3.2l559.2-138.4c15.2-4 24-19.2 20.8-33.6L642.4 40c-1.6-7.2-6.4-13.6-12.8-17.6-4.8-2.4-9.6-4-14.4-4z" fill="#600F13" p-id="1293"></path>
  <path d="M615.2 14.4L40.8 156.8c-10.4 5.6-16.8 16.8-16.8 28.8 51.2 156 216 248 380 207.2S671.2 193.6 643.2 32c-5.6-10.4-16-16.8-28-17.6z" fill="#9C1F24" p-id="1294"></path>
  <path d="M607.2 16L48 154.4c-13.6 3.2-22.4 14.4-24 27.2 55.2 148.8 216 235.2 376 195.2 160-39.2 261.6-191.2 240.8-348.8-6.4-10.4-20-16-33.6-12z" fill="#AA1F24" p-id="1295"></path>
  <path d="M464 634.4m-140 0a140 140 0 1 0 280 0 140 140 0 1 0-280 0Z" fill="#F4D31F" p-id="1296"></path>
  <path d="M464 634.4m-120 0a120 120 0 1 0 240 0 120 120 0 1 0-240 0Z" fill="#F5AB16" p-id="1297"></path>
  <path d="M454.4 619.2c-1.6 0.8-3.2 1.6-4.8 1.6-0.8 0.8-2.4 0.8-3.2 0.8-0.8 0-1.6 0.8-2.4 0.8-0.8 0-1.6 0-2.4 0.8-1.6 0-2.4 0.8-3.2 0.8h-2.4c-0.8 0-1.6-0.8-1.6-0.8-0.8-0.8-1.6-0.8-2.4-1.6-2.4-1.6-4-4-6.4-6.4-2.4-2.4-5.6-4.8-8.8-8 0 3.2 0 5.6-0.8 8-0.8 2.4-1.6 4.8-3.2 7.2-1.6 2.4-3.2 4-5.6 5.6-2.4 1.6-4.8 4-8 5.6-2.4 1.6-4 1.6-4 0.8s0.8-1.6 2.4-3.2c2.4-1.6 4-3.2 5.6-5.6s3.2-4.8 4-7.2 1.6-5.6 2.4-8c0.8-3.2 0-6.4 0-9.6-0.8 0.8-2.4 0.8-3.2 1.6s-1.6 0.8-2.4 1.6c-1.6 0.8-2.4 1.6-3.2 1.6H400h-1.6c-0.8 0-0.8 0-1.6-0.8s-1.6-0.8-2.4-0.8c-0.8 0-0.8-0.8-0.8-0.8s0-0.8 0.8-0.8 1.6-0.8 2.4-0.8c1.6-0.8 4-1.6 6.4-2.4 2.4-0.8 4.8-1.6 7.2-3.2-0.8-3.2-1.6-5.6-1.6-8s-0.8-4-1.6-4.8c-0.8-1.6-0.8-2.4-1.6-3.2-0.8-0.8-0.8-1.6-1.6-1.6l-2.4-2.4c-0.8-0.8-0.8-1.6 0-1.6 0 0 0.8-0.8 2.4-0.8h8c0.8 0 1.6 0.8 1.6 0.8s0.8 0.8 0.8 1.6v5.6c0 0.8 0 2.4 0.8 4 0 1.6 0.8 4 1.6 7.2l4.8-2.4c1.6-0.8 2.4-1.6 3.2-1.6 1.6-0.8 2.4-1.6 4-2.4 0.8-0.8 2.4-0.8 3.2-0.8h2.4c0.8 0 1.6 0 2.4 0.8 2.4 0.8 4 1.6 3.2 3.2 0 0.8-2.4 1.6-5.6 2.4-2.4 0.8-4.8 1.6-8 2.4s-5.6 2.4-8.8 3.2v3.2c3.2 3.2 7.2 5.6 9.6 7.2s5.6 3.2 8.8 4.8c2.4 0.8 5.6 1.6 8 2.4 2.4 0.8 5.6 0.8 8.8 1.6 2.4 0 4 0.8 4 1.6 0.8 0-0.8 0-2.4 0.8zM508 560.8c2.4 0.8 4 2.4 3.2 3.2 0 0.8-1.6 1.6-5.6 2.4-1.6 0-2.4 0.8-4 0.8s-2.4 0.8-4 0.8-2.4 0.8-4 1.6-3.2 0.8-5.6 1.6l1.6 8.8c0.8-0.8 2.4-0.8 3.2-1.6 0.8-0.8 1.6-0.8 2.4-0.8 1.6-0.8 3.2-1.6 4-1.6 0.8 0 2.4 0 4 0.8s2.4 1.6 2.4 2.4c0 0.8-2.4 1.6-5.6 2.4-0.8 0-1.6 0.8-3.2 0.8-1.6 0.8-3.2 0.8-4.8 1.6-1.6 0.8-4 1.6-5.6 2.4s-4 1.6-6.4 2.4c-0.8 0-1.6 0.8-2.4 0.8H472.8l-3.2-1.6c0-0.8 0.8-0.8 2.4-1.6 0.8 0 2.4-0.8 4.8-1.6s4-1.6 6.4-2.4l-2.4-8.8c-2.4 0.8-4.8 1.6-6.4 2.4-1.6 0.8-4 1.6-5.6 2.4-0.8 0.8-2.4 0.8-3.2 1.6-0.8 0-1.6 0.8-1.6 0.8h-1.6c-0.8 0-1.6-0.8-2.4-0.8-1.6-0.8-3.2-1.6-3.2-2.4 0-0.8 1.6-0.8 3.2-1.6 0.8 0 0.8 0 1.6-0.8 0.8 0 1.6-0.8 3.2-0.8 1.6-0.8 3.2-1.6 5.6-2.4 2.4-0.8 4.8-1.6 8.8-3.2-0.8-2.4-0.8-4-1.6-5.6s-0.8-2.4-0.8-3.2c0-0.8-0.8-1.6-0.8-2.4 0-0.8-0.8-0.8-1.6-1.6l-2.4-2.4c-0.8-0.8-0.8-0.8 0-1.6 0 0 0.8-0.8 1.6-0.8h8c0.8 0 1.6 0.8 2.4 0.8 0.8 0.8 0.8 0.8 0.8 1.6v5.6c0 1.6 0 3.2 0.8 5.6 2.4-0.8 4.8-1.6 6.4-2.4l4.8-2.4c1.6-0.8 2.4-1.6 4-1.6 4 1.6 4.8 1.6 7.2 2.4zM512 592c-0.8 0.8-2.4 2.4-3.2 4l-2.4 4.8c2.4 0.8 3.2 1.6 3.2 2.4 0 0.8-0.8 1.6-3.2 2.4-0.8 0-2.4 0.8-4 1.6s-2.4 0.8-4 0.8c-1.6 0.8-4 0.8-5.6 1.6-1.6 0.8-4 0.8-5.6 1.6 0 2.4 0 3.2-0.8 4s-2.4 0-4-1.6c0 0-0.8-0.8-0.8-1.6s-0.8-1.6-1.6-3.2c0-0.8-0.8-1.6-1.6-2.4-0.8-0.8-1.6-2.4-1.6-3.2s-1.6-1.6-1.6-2.4c-0.8-0.8-0.8-1.6-1.6-1.6s-0.8-0.8-1.6-1.6v-1.6c0-0.8 0.8-0.8 2.4-0.8h4.8c1.6-0.8 4-1.6 6.4-2.4 2.4-0.8 4-1.6 6.4-2.4 1.6-0.8 4-1.6 5.6-2.4 1.6-0.8 2.4-1.6 3.2-2.4 0.8 0 0.8-0.8 1.6-0.8s0.8 0 1.6-0.8h2.4c0.8 0 1.6 0 3.2 0.8s3.2 1.6 4.8 1.6c0.8 0.8 1.6 0.8 1.6 1.6v1.6c0 0.8-3.2 1.6-4 2.4z m-10.4 4.8v-2.4-0.8h-0.8-0.8c-0.8 0-1.6 0-2.4 0.8-1.6 0-3.2 0.8-4.8 1.6-1.6 0.8-3.2 0.8-5.6 1.6-1.6 0.8-4 1.6-4.8 1.6 0.8 1.6 1.6 3.2 1.6 4.8 0.8 1.6 1.6 3.2 1.6 4.8 1.6-0.8 2.4-0.8 4-1.6s2.4-0.8 3.2-1.6 2.4-0.8 3.2-1.6c0.8-0.8 2.4-0.8 4-1.6 0-0.8 0.8-1.6 0.8-2.4s0.8-2.4 0.8-3.2z" fill="#C32A1F" p-id="1298"></path>
  <path d="M475.2 703.2c-1.6 0.8-3.2 1.6-4.8 1.6-0.8 0.8-2.4 0.8-3.2 0.8-0.8 0-1.6 0.8-2.4 0.8-0.8 0-1.6 0-2.4 0.8-1.6 0-2.4 0.8-3.2 0.8h-2.4c-0.8 0-1.6-0.8-1.6-0.8-0.8-0.8-1.6-0.8-2.4-1.6-2.4-1.6-4-4-6.4-6.4-2.4-2.4-5.6-4.8-8.8-8 0 3.2 0 5.6-0.8 8-0.8 2.4-1.6 4.8-3.2 7.2-1.6 2.4-3.2 4-5.6 5.6-2.4 1.6-4.8 4-8 5.6-2.4 1.6-4 1.6-4 0.8s0.8-1.6 2.4-3.2c2.4-1.6 4-3.2 5.6-5.6s3.2-4.8 4-7.2 1.6-5.6 2.4-8c0.8-3.2 0-6.4 0-9.6-0.8 0.8-2.4 0.8-3.2 1.6s-1.6 0.8-2.4 1.6c-1.6 0.8-2.4 1.6-3.2 1.6s-1.6 0.8-2.4 0.8h-1.6c-0.8 0-0.8 0-1.6-0.8 0.8-0.8 0-1.6-0.8-1.6s-0.8-0.8-0.8-0.8 0-0.8 0.8-0.8 1.6-0.8 2.4-0.8c1.6-0.8 4-1.6 6.4-2.4 2.4-0.8 4.8-1.6 7.2-3.2-0.8-3.2-1.6-5.6-1.6-8-0.8-2.4-0.8-4-1.6-4.8-0.8-1.6-0.8-2.4-1.6-3.2-0.8-0.8-0.8-1.6-1.6-1.6l-2.4-2.4c-0.8-0.8-0.8-1.6 0-1.6 0 0 0.8-0.8 2.4-0.8h8c0.8 0 1.6 0.8 1.6 0.8s0.8 0.8 0.8 1.6v5.6c0 0.8 0 2.4 0.8 4 0 1.6 0.8 4 1.6 7.2l4.8-2.4c1.6-0.8 2.4-1.6 3.2-1.6 1.6-0.8 2.4-1.6 4-2.4 0.8-0.8 2.4-0.8 3.2-0.8h2.4c0.8 0 1.6 0 2.4 0.8 2.4 0.8 4 1.6 3.2 3.2 0 0.8-2.4 1.6-5.6 2.4-2.4 0.8-4.8 1.6-8 2.4-3.2 0.8-5.6 2.4-8.8 3.2v3.2c3.2 3.2 7.2 5.6 9.6 7.2s5.6 3.2 8.8 4.8c2.4 0.8 5.6 1.6 8 2.4s5.6 0.8 8.8 1.6c2.4 0 4 0.8 4 1.6 0.8-0.8-0.8 0-2.4 0.8zM508.8 656c1.6 0.8 2.4 0.8 2.4 1.6s-1.6 1.6-4 2.4c-0.8 0-2.4 0.8-3.2 0.8-0.8 0-1.6 0.8-2.4 0.8 0 0.8 0 1.6 0.8 2.4 0 0.8 0.8 1.6 0.8 2.4 2.4-0.8 4.8-0.8 6.4 0 1.6 0.8 2.4 1.6 3.2 3.2v2.4c0 0.8 0 0.8-0.8 1.6 0 0-0.8 0.8-1.6 0.8s-0.8 0-1.6-0.8c-0.8 0-1.6-0.8-2.4-1.6-0.8-0.8-1.6-1.6-3.2-2.4 0.8 2.4 0.8 4 1.6 6.4 0.8 2.4 1.6 4.8 1.6 7.2 0 0.8 0.8 2.4 0.8 3.2v5.6c-0.8 2.4-1.6 3.2-2.4 3.2s-2.4-0.8-4-2.4c-0.8-0.8-1.6-2.4-1.6-3.2v-4.8-5.6c0-2.4-0.8-5.6-1.6-9.6-0.8 1.6-0.8 3.2-1.6 4.8-0.8 1.6-1.6 3.2-2.4 4-0.8 1.6-1.6 2.4-3.2 4-0.8 1.6-2.4 2.4-4 4-2.4 1.6-3.2 2.4-4 2.4 0 0 0-1.6 2.4-4 2.4-3.2 4-6.4 5.6-9.6 1.6-4 2.4-7.2 3.2-11.2-2.4 0.8-4 2.4-5.6 4-0.8 0.8-1.6 0.8-1.6 1.6-0.8 0-0.8 0.8-1.6 0.8h-1.6c-0.8 0-1.6-0.8-2.4-0.8-2.4-0.8-3.2-1.6-3.2-2.4s0.8-0.8 3.2-1.6c0.8 0 2.4-0.8 3.2-0.8 1.6-0.8 2.4-0.8 4-1.6s2.4-0.8 4-1.6 2.4-0.8 3.2-1.6c-0.8-2.4-0.8-4-1.6-4.8 0-0.8-0.8-1.6-0.8-2.4-0.8 0.8-1.6 0.8-2.4 1.6-0.8 0.8-1.6 0.8-2.4 0.8-2.4 0.8-4 1.6-4 0.8 0 0 0.8-1.6 2.4-3.2 1.6-1.6 3.2-3.2 4.8-4s1.6-2.4 2.4-3.2c0.8-0.8 0.8-1.6 0.8-1.6v-1.6c0-1.6 0-2.4 0.8-2.4 0.8-0.8 2.4 0 4.8 0 1.6 0 2.4 0.8 4 1.6 0.8 0.8 1.6 0.8 1.6 1.6v1.6l-1.6 1.6c-0.8 0-1.6 0.8-2.4 1.6s-2.4 1.6-3.2 2.4c1.6 0 2.4 0.8 3.2 1.6v6.4c2.4-1.6 4-2.4 4.8-2.4s1.6-0.8 2.4 0z m11.2-4V654.4c0 0.8 0 1.6 0.8 2.4 0 0.8 0.8 2.4 0.8 4 0.8 1.6 0.8 3.2 0.8 4 0 0.8 0.8 1.6 0.8 2.4v3.2c0 1.6-0.8 3.2-1.6 3.2s-1.6 0-3.2-1.6c-0.8-0.8-1.6-1.6-1.6-2.4v-2.4-1.6-1.6-1.6c0-0.8-0.8-1.6-0.8-2.4-0.8-1.6-0.8-3.2-1.6-4 0-0.8-0.8-1.6-0.8-2.4 0-0.8-0.8-0.8-0.8-1.6l-0.8-0.8-1.6-1.6V648s0.8-0.8 1.6-0.8h4c1.6 0 2.4 0 3.2 0.8 0.8 0 1.6 0.8 1.6 0.8l0.8 0.8-1.6 2.4z m19.2 24c0.8 2.4 1.6 4 0.8 6.4 0 1.6-0.8 4-1.6 5.6-0.8 1.6-1.6 3.2-3.2 3.2-0.8 0-1.6 0-2.4-0.8-0.8-0.8-1.6-2.4-3.2-3.2-0.8-0.8-2.4-2.4-4.8-3.2-0.8-0.8-1.6-0.8-2.4-1.6-0.8 0-0.8-0.8-0.8-0.8s0.8-0.8 1.6-0.8H530.4V680v-1.6c0-1.6-0.8-2.4-0.8-4s-0.8-2.4-0.8-4-0.8-3.2-1.6-5.6-1.6-4.8-2.4-8c-0.8-4-1.6-7.2-2.4-9.6-0.8-2.4-1.6-4-1.6-5.6-0.8-1.6-0.8-2.4-1.6-3.2l-1.6-1.6c-2.4-1.6-2.4-2.4-2.4-3.2 0.8-0.8 3.2-0.8 6.4 0 1.6 0 2.4 0.8 3.2 0.8 0.8 0 1.6 0.8 1.6 0.8 0 0.8 0.8 0.8 0.8 1.6v6.4c0 0.8 0.8 2.4 0.8 4 0.8 1.6 0.8 4.8 1.6 8 0.8 4 1.6 6.4 2.4 8.8 0.8 2.4 1.6 4 1.6 5.6 0.8 1.6 0.8 3.2 1.6 4 3.2 0.8 3.2 1.6 4 2.4z" fill="#C32A1F" p-id="1299"></path>
</svg>