<?xml version="1.0" encoding="UTF-8" standalone="no"?>
<!-- Created with Inkscape (http://www.inkscape.org/) -->
<svg
   xmlns:dc="http://purl.org/dc/elements/1.1/"
   xmlns:cc="http://web.resource.org/cc/"
   xmlns:rdf="http://www.w3.org/1999/02/22-rdf-syntax-ns#"
   xmlns:svg="http://www.w3.org/2000/svg"
   xmlns="http://www.w3.org/2000/svg"
   xmlns:xlink="http://www.w3.org/1999/xlink"
   xmlns:sodipodi="http://sodipodi.sourceforge.net/DTD/sodipodi-0.dtd"
   xmlns:inkscape="http://www.inkscape.org/namespaces/inkscape"
   width="145.8244"
   height="144.63728"
   id="svg2014"
   sodipodi:version="0.32"
   inkscape:version="0.44"
   version="1.0"
   sodipodi:docbase="C:\Documents and Settings\Molumen\Desktop"
   sodipodi:docname="round_error_warning_icon.svg">
  <defs
     id="defs2016">
    <linearGradient
       inkscape:collect="always"
       id="linearGradient2555">
      <stop
         style="stop-color:#ffffff;stop-opacity:1;"
         offset="0"
         id="stop2557" />
      <stop
         style="stop-color:#ffffff;stop-opacity:0;"
         offset="1"
         id="stop2559" />
    </linearGradient>
    <linearGradient
       inkscape:collect="always"
       xlink:href="#linearGradient2555"
       id="linearGradient2026"
       gradientUnits="userSpaceOnUse"
       gradientTransform="matrix(-0.657176,0,0,0.657176,-16.96567,114.6286)"
       x1="-344.15295"
       y1="274.711"
       x2="-395.84943"
       y2="425.39993" />
  </defs>
  <sodipodi:namedview
     id="base"
     pagecolor="#ffffff"
     bordercolor="#666666"
     borderopacity="1.0"
     gridtolerance="10000"
     guidetolerance="10"
     objecttolerance="10"
     inkscape:pageopacity="0.0"
     inkscape:pageshadow="2"
     inkscape:zoom="1.4"
     inkscape:cx="83.65569"
     inkscape:cy="83.45924"
     inkscape:document-units="px"
     inkscape:current-layer="layer1"
     inkscape:window-width="853"
     inkscape:window-height="569"
     inkscape:window-x="602"
     inkscape:window-y="18" />
  <metadata
     id="metadata2019">
    <rdf:RDF>
      <cc:Work
         rdf:about="">
        <dc:format>image/svg+xml</dc:format>
        <dc:type
           rdf:resource="http://purl.org/dc/dcmitype/StillImage" />
        <dc:creator>
          <cc:Agent>
            <dc:title>Lumen Design Studio</dc:title>
          </cc:Agent>
        </dc:creator>
        <dc:contributor>
          <cc:Agent>
            <dc:title>Lumen Design Studio</dc:title>
          </cc:Agent>
        </dc:contributor>
        <dc:title>square error warning button</dc:title>
        <dc:description>error warning icon</dc:description>
        <dc:subject>
          <rdf:Bag>
            <rdf:li>error</rdf:li>
            <rdf:li>icon</rdf:li>
            <rdf:li>button</rdf:li>
            <rdf:li>red</rdf:li>
            <rdf:li>stop</rdf:li>
            <rdf:li>no</rdf:li>
            <rdf:li>warning</rdf:li>
            <rdf:li>negative</rdf:li>
            <rdf:li>delete</rdf:li>
            <rdf:li>cancel</rdf:li>
            <rdf:li>square</rdf:li>
          </rdf:Bag>
        </dc:subject>
        <cc:license
           rdf:resource="http://web.resource.org/cc/PublicDomain" />
      </cc:Work>
      <cc:License
         rdf:about="http://web.resource.org/cc/PublicDomain">
        <cc:permits
           rdf:resource="http://web.resource.org/cc/Reproduction" />
        <cc:permits
           rdf:resource="http://web.resource.org/cc/Distribution" />
        <cc:permits
           rdf:resource="http://web.resource.org/cc/DerivativeWorks" />
      </cc:License>
    </rdf:RDF>
  </metadata>
  <g
     inkscape:label="Layer 1"
     inkscape:groupmode="layer"
     id="layer1"
     transform="translate(-318.5164,-325.5746)">
    <g
       transform="matrix(0.9,0,0,0.9,170.1648,46.29698)"
       id="g2071">
      <rect
         inkscape:export-ydpi="7.7063322"
         inkscape:export-xdpi="7.7063322"
         inkscape:export-filename="C:\Documents and Settings\Molumen\Desktop\path3511111.png"
         transform="scale(-1,1)"
         ry="39.430557"
         rx="39.430557"
         y="318.34387"
         x="-318.76086"
         height="144.63728"
         width="145.8244"
         id="rect3417"
         style="fill:#f00a10;fill-opacity:1;fill-rule:evenodd;stroke:none;stroke-width:0.875;stroke-linecap:square;stroke-linejoin:miter;stroke-miterlimit:4;stroke-dasharray:0.875, 1.75;stroke-dashoffset:0;stroke-opacity:1" />
      <g
         inkscape:export-ydpi="7.7063322"
         inkscape:export-xdpi="7.7063322"
         inkscape:export-filename="C:\Documents and Settings\Molumen\Desktop\path3511111.png"
         transform="matrix(0.657176,0,0,0.657176,-102.644,-95.3871)"
         id="g3479">
        <path
           id="path3419"
           d="M 554.12665,739.60331 L 589.90441,703.82555 C 593.65249,700.07729 595.52656,695.9316 595.52663,691.38852 C 595.2994,687.29953 593.42534,683.4946 589.90441,679.97371 C 586.7241,676.79337 582.97596,674.97609 578.65997,674.52187 C 574.23029,674.18102 570.02784,675.99831 566.05257,679.97371 L 530.27481,715.75147 L 494.49705,679.97371 C 490.86252,676.33904 486.77364,674.52176 482.23038,674.52187 C 477.80081,674.8625 473.93909,676.67978 470.64521,679.97372 C 467.80576,682.8131 466.15885,686.50446 465.70446,691.04778 C 465.25021,695.81803 466.89713,700.07728 470.64521,703.82556 L 506.42296,739.60332 L 470.64521,775.38107 C 467.46502,778.56112 465.70454,782.70679 465.36372,787.81812 C 465.70454,792.24751 467.46502,796.05245 470.64521,799.23291 C 473.59834,802.18578 477.34649,804.00305 481.88965,804.68477 C 486.31932,805.02528 490.52177,803.208 494.49705,799.23291 L 530.2748,763.45516 L 566.05257,799.23292 C 569.80067,802.98083 573.94635,804.62775 578.4896,804.17365 C 583.14633,803.83269 586.95127,802.18577 589.90441,799.23292 C 592.63027,796.50677 594.27718,792.81542 594.84514,788.15885 C 595.52656,783.61543 593.87965,779.35618 589.90441,775.38107 L 554.12665,739.60331"
           style="font-size:454.95709229px;font-style:normal;font-variant:normal;font-weight:normal;font-stretch:normal;line-height:100%;writing-mode:lr-tb;text-anchor:start;fill:#cb1e0e;fill-opacity:1;stroke:none;stroke-width:1px;stroke-linecap:butt;stroke-linejoin:miter;stroke-opacity:1;font-family:GOST type B" />
           <!--
        <path
           style="font-size:454.95709229px;font-style:normal;font-variant:normal;font-weight:normal;font-stretch:normal;line-height:100%;writing-mode:lr-tb;text-anchor:start;fill:white;fill-opacity:1;stroke:none;stroke-width:1px;stroke-linecap:butt;stroke-linejoin:miter;stroke-opacity:1;font-family:GOST type B"
           d="M 552.27953,739.60331 L 585.26668,706.61616 C 588.72241,703.16026 590.45031,699.33793 590.45037,695.1492 C 590.24087,691.37914 588.51298,687.87099 585.26668,684.62473 C 582.33443,681.69245 578.87864,680.01691 574.89929,679.59812 C 570.81512,679.28386 566.94045,680.9594 563.27525,684.62473 L 530.2881,717.61188 L 497.30095,684.62473 C 493.94991,681.27356 490.17995,679.59802 485.99106,679.59812 C 481.90699,679.91218 478.34648,681.58772 475.30952,684.62474 C 472.69154,687.24265 471.17309,690.64609 470.75414,694.83504 C 470.33532,699.23321 471.85378,703.16025 475.30952,706.61617 L 508.29666,739.60332 L 475.30952,772.59046 C 472.37738,775.52247 470.75421,779.34478 470.43998,784.05743 C 470.75421,788.14134 472.37738,791.6495 475.30952,794.58189 C 478.03231,797.30444 481.48811,798.97996 485.67691,799.60851 C 489.76107,799.92246 493.63574,798.24693 497.30095,794.58189 L 530.28809,761.59475 L 563.27525,794.5819 C 566.731,798.03748 570.55332,799.55594 574.74221,799.13726 C 579.03572,798.82289 582.54388,797.30443 585.26668,794.5819 C 587.77993,792.06838 589.29838,788.66495 589.82204,784.37159 C 590.45031,780.18255 588.93186,776.25551 585.26668,772.59046 L 552.27953,739.60331"
           id="path3421" />
           -->
      </g>
      <path
         inkscape:export-ydpi="7.7063322"
         inkscape:export-xdpi="7.7063322"
         inkscape:export-filename="C:\Documents and Settings\Molumen\Desktop\path3511111.png"
         sodipodi:nodetypes="ccccsssc"
         id="path3423"
         d="M 280.23405,324.52719 L 211.46341,324.52719 C 193.25963,324.52719 178.60461,339.18221 178.60461,357.38598 L 178.60461,423.93892 C 179.19383,438.14851 181.46036,429.16551 185.77459,413.42936 C 190.78864,395.14075 207.1179,379.15625 227.00405,367.17679 C 242.1825,358.0333 259.17188,352.19462 290.09708,351.63918 C 307.63566,351.32419 306.08729,329.06065 280.23405,324.52719 z "
         style="fill:url(#linearGradient2026);fill-opacity:1;fill-rule:evenodd;stroke:none;stroke-width:0.875;stroke-linecap:square;stroke-linejoin:miter;stroke-miterlimit:4;stroke-dasharray:0.875, 1.75;stroke-dashoffset:0;stroke-opacity:1" />
    </g>
  </g>
</svg>
