<?xml version="1.0" encoding="utf-8"?>
<!-- Generator: Adobe Illustrator 24.1.2, SVG Export Plug-In . SVG Version: 6.00 Build 0)  -->
<svg version="1.1" id="PlantUnitFertilizer" xmlns="http://www.w3.org/2000/svg" xmlns:xlink="http://www.w3.org/1999/xlink"
	 x="0px" y="0px" viewBox="0 0 100 100" style="enable-background:new 0 0 100 100;" xml:space="preserve">
<style type="text/css">
	.st0{fill:url(#SVGID_1_);}
	.st1{fill:url(#SVGID_2_);}
	.st2{fill:url(#SVGID_3_);}
	.st3{fill:url(#SVGID_4_);}
	.st4{fill:url(#SVGID_5_);}
	.st5{fill:url(#SVGID_6_);}
	.st6{display:none;opacity:0.5;fill:#FF0000;}
	.st7{fill:none;stroke:#666666;stroke-miterlimit:10;}
	.st8{fill:none;stroke:#666666;stroke-miterlimit:10;stroke-dasharray:0.9799,1.9598;}
	.st9{fill:none;stroke:#666666;stroke-miterlimit:10;stroke-dasharray:0.9705,1.941;}
</style>
<g id="Gradients_79_">
	<linearGradient id="SVGID_1_" gradientUnits="userSpaceOnUse" x1="5" y1="77.9369" x2="95" y2="77.9369">
		<stop  offset="0" style="stop-color:#808080"/>
		<stop  offset="0.4" style="stop-color:#CCCCCC"/>
		<stop  offset="0.5" style="stop-color:#F2F2F2"/>
		<stop  offset="0.6" style="stop-color:#CCCCCC"/>
		<stop  offset="1" style="stop-color:#808080"/>
	</linearGradient>
	<path class="st0" d="M94,79.44H6c-0.55,0-1-0.45-1-1v-1c0-0.55,0.45-1,1-1h88c0.55,0,1,0.45,1,1v1C95,78.99,94.55,79.44,94,79.44z"
		/>
	<linearGradient id="SVGID_2_" gradientUnits="userSpaceOnUse" x1="16.9099" y1="76.4376" x2="16.9099" y2="49.296">
		<stop  offset="0" style="stop-color:#808080"/>
		<stop  offset="0.4" style="stop-color:#CCCCCC"/>
		<stop  offset="0.5" style="stop-color:#F2F2F2"/>
		<stop  offset="0.6" style="stop-color:#CCCCCC"/>
		<stop  offset="1" style="stop-color:#808080"/>
	</linearGradient>
	<path class="st1" d="M13.16,76.44h4.01v-22.4c0-0.2,0-0.67,0.92-0.73l2.58,0V49.3h-2.67c-1.98,0.06-4.84,1.38-4.84,4.74V76.44z"/>
	<linearGradient id="SVGID_3_" gradientUnits="userSpaceOnUse" x1="86.5353" y1="76.4376" x2="86.5353" y2="59.3353">
		<stop  offset="0" style="stop-color:#808080"/>
		<stop  offset="0.4" style="stop-color:#CCCCCC"/>
		<stop  offset="0.5" style="stop-color:#F2F2F2"/>
		<stop  offset="0.6" style="stop-color:#CCCCCC"/>
		<stop  offset="1" style="stop-color:#808080"/>
	</linearGradient>
	<path class="st2" d="M89.99,76.44h-4.01V64.08c0-0.2,0-0.67-0.92-0.73l-1.97,0v-4.01h2.06c1.98,0.06,4.84,1.38,4.84,4.74V76.44z"/>
	<linearGradient id="SVGID_4_" gradientUnits="userSpaceOnUse" x1="18.057" y1="48.5615" x2="32.4979" y2="48.5615">
		<stop  offset="0" style="stop-color:#808080"/>
		<stop  offset="0.4" style="stop-color:#CCCCCC"/>
		<stop  offset="0.5" style="stop-color:#F2F2F2"/>
		<stop  offset="0.6" style="stop-color:#CCCCCC"/>
		<stop  offset="1" style="stop-color:#808080"/>
	</linearGradient>
	<polygon class="st3" points="29.89,23.36 28.89,20.56 21.67,20.56 20.66,23.36 18.06,23.36 18.06,28.19 20.66,30.91 20.66,76.56 
		29.89,76.56 29.89,30.91 32.5,28.19 32.5,23.36 	"/>
	<linearGradient id="SVGID_5_" gradientUnits="userSpaceOnUse" x1="32.4978" y1="48.501" x2="77.3843" y2="48.501">
		<stop  offset="0" style="stop-color:#808080"/>
		<stop  offset="0.4" style="stop-color:#CCCCCC"/>
		<stop  offset="0.5" style="stop-color:#F2F2F2"/>
		<stop  offset="0.6" style="stop-color:#CCCCCC"/>
		<stop  offset="1" style="stop-color:#808080"/>
	</linearGradient>
	<path class="st4" d="M76.38,52.67H54.65V43.5l-2.69-2.69v-0.02c0.62-1.32,1.42-2.42,2.41-3.29c3.03-2.67,7.35-2.5,8.21-2.43v-3.99
		c-1.23-0.11-6.39-0.33-10.61,3.21V21.56c0-0.55-0.45-1-1-1h-4.78c-0.55,0-1,0.45-1,1v12.47l-1.61-1.61L32.5,43.5v32.94h7.11h5.57v0
		h1.26v0h4.01v0h1.51v0h25.42V53.67C77.38,53.12,76.94,52.67,76.38,52.67z M50.18,61.32c0,0.58-0.47,1.05-1.05,1.05h-2.02
		c-0.58,0-1.05-0.47-1.05-1.05V59.3c0-0.58,0.47-1.05,1.05-1.05h2.02c0.58,0,1.05,0.47,1.05,1.05V61.32z M56.94,61.32
		c0,0.58-0.47,1.05-1.05,1.05h-2.02c-0.58,0-1.05-0.47-1.05-1.05V59.3c0-0.58,0.47-1.05,1.05-1.05h2.02c0.58,0,1.05,0.47,1.05,1.05
		V61.32z M63.7,61.32c0,0.58-0.47,1.05-1.05,1.05h-2.02c-0.58,0-1.05-0.47-1.05-1.05V59.3c0-0.58,0.47-1.05,1.05-1.05h2.02
		c0.58,0,1.05,0.47,1.05,1.05V61.32z M70.55,61.32c0,0.58-0.47,1.05-1.05,1.05h-2.02c-0.58,0-1.05-0.47-1.05-1.05V59.3
		c0-0.58,0.47-1.05,1.05-1.05h2.02c0.58,0,1.05,0.47,1.05,1.05V61.32z"/>
	<linearGradient id="SVGID_6_" gradientUnits="userSpaceOnUse" x1="62.5818" y1="48.5009" x2="83.0854" y2="48.5009">
		<stop  offset="0" style="stop-color:#808080"/>
		<stop  offset="0.4" style="stop-color:#CCCCCC"/>
		<stop  offset="0.5" style="stop-color:#F2F2F2"/>
		<stop  offset="0.6" style="stop-color:#CCCCCC"/>
		<stop  offset="1" style="stop-color:#808080"/>
	</linearGradient>
	<path class="st5" d="M82.09,26.44h-5.86v-4.88c0-0.55-0.45-1-1-1h-4.78c-0.55,0-1,0.45-1,1v4.88h-5.86c-0.55,0-1,0.45-1,1v25.23
		h13.8c0.55,0,1,0.45,1,1v22.77h-14.8v0h20.5v-49C83.09,26.89,82.64,26.44,82.09,26.44z"/>
</g>
<path id="Color_Fill_77_" class="st6" d="M94,76.44h-4.01V64.08c0-3.37-2.85-4.68-4.84-4.74h-2.06v-31.9c0-0.55-0.45-1-1-1h-5.86
	v-4.88c0-0.55-0.45-1-1-1h-4.78c-0.55,0-1,0.45-1,1v4.88h-5.86c-0.55,0-1,0.45-1,1v3.64c-1.23-0.11-6.39-0.33-10.61,3.21V21.56
	c0-0.55-0.45-1-1-1h-4.78c-0.55,0-1,0.45-1,1v12.47l-1.61-1.61L32.5,43.5v31.67v1.27v0h-2.61V30.91l2.61-2.72v-4.83h-2.61l-1-2.8
	h-7.22l-1,2.8h-2.61v4.83l2.61,2.72V49.3h-2.67c-1.98,0.06-4.84,1.38-4.84,4.74v22.4H6c-0.55,0-1,0.45-1,1v1c0,0.55,0.45,1,1,1h88
	c0.55,0,1-0.45,1-1v-1C95,76.89,94.55,76.44,94,76.44z M20.66,76.44h-3.5v-22.4c0-0.2,0-0.67,0.92-0.73l2.58,0V76.44z M83.09,63.35
	l1.97,0c0.92,0.06,0.92,0.53,0.92,0.73v12.36l-2.89,0V63.35z M66.44,59.3c0-0.58,0.47-1.05,1.05-1.05h2.02
	c0.58,0,1.05,0.47,1.05,1.05v2.02c0,0.58-0.47,1.05-1.05,1.05h-2.02c-0.58,0-1.05-0.47-1.05-1.05V59.3z M62.66,58.25
	c0.58,0,1.05,0.47,1.05,1.05v2.02c0,0.58-0.47,1.05-1.05,1.05h-2.02c-0.58,0-1.05-0.47-1.05-1.05V59.3c0-0.58,0.47-1.05,1.05-1.05
	H62.66z M51.97,40.79c0.62-1.32,1.42-2.42,2.41-3.29c3.03-2.67,7.35-2.5,8.21-2.43v17.6h-7.93V43.5l-2.69-2.69V40.79z M56.94,59.3
	v2.02c0,0.58-0.47,1.05-1.05,1.05h-2.02c-0.58,0-1.05-0.47-1.05-1.05V59.3c0-0.58,0.47-1.05,1.05-1.05h2.02
	C56.47,58.25,56.94,58.72,56.94,59.3z M46.07,59.3c0-0.58,0.47-1.05,1.05-1.05h2.02c0.58,0,1.05,0.47,1.05,1.05v2.02
	c0,0.58-0.47,1.05-1.05,1.05h-2.02c-0.58,0-1.05-0.47-1.05-1.05V59.3z"/>
<g id="Outlines_79_">
	<path class="st7" d="M94,79.44H6c-0.55,0-1-0.45-1-1v-1c0-0.55,0.45-1,1-1h88c0.55,0,1,0.45,1,1v1C95,78.99,94.55,79.44,94,79.44z"
		/>
	<path class="st7" d="M13.16,76.44h4.01v-22.4c0-0.2,0-0.67,0.92-0.73l2.58,0V49.3h-2.67c-1.98,0.06-4.84,1.38-4.84,4.74V76.44z"/>
	<path class="st7" d="M89.99,76.44h-4.01V64.08c0-0.2,0-0.67-0.92-0.73l-1.97,0v-4.01h2.06c1.98,0.06,4.84,1.38,4.84,4.74V76.44z"/>
	<polygon class="st7" points="29.89,23.36 28.89,20.56 21.67,20.56 20.66,23.36 18.06,23.36 18.06,28.19 20.66,30.91 20.66,76.56 
		29.89,76.56 29.89,30.91 32.5,28.19 32.5,23.36 	"/>
	<path class="st7" d="M75.22,20.56h-4.78c-0.55,0-1,0.45-1,1v4.88h6.78v-4.88C76.22,21.01,75.78,20.56,75.22,20.56z"/>
	<path class="st7" d="M51.97,34.29V21.56c0-0.55-0.45-1-1-1h-4.78c-0.55,0-1,0.45-1,1v12.47l-1.61-1.61L32.5,43.5v32.94h7.11h5.57v0
		h1.26v0h4.01v0h1.51v0h25.42V53.67c0-0.55-0.45-1-1-1H54.65V43.5l-2.69-2.69v-0.02"/>
	<path class="st7" d="M82.09,26.44h-18.5c-0.55,0-1,0.45-1,1v25.23h13.8c0.55,0,1,0.45,1,1v22.77h-14.8v0h20.5v-49
		C83.09,26.89,82.64,26.44,82.09,26.44z"/>
	<path class="st7" d="M51.97,34.19V21.56c0-0.55-0.45-1-1-1h-4.78c-0.55,0-1,0.45-1,1"/>
	<path class="st7" d="M62.58,31.08c-1.25-0.11-6.56-0.34-10.82,3.37c-3.53,3.08-5.32,7.94-5.32,14.43v3.79h4.01v-3.79
		c0-5.26,1.32-9.09,3.91-11.38c3.03-2.67,7.35-2.5,8.21-2.43V31.08z"/>
	<path class="st7" d="M46.45,48.88c0-4.48,0.87-8.16,2.56-11.03l-5.43-5.43L32.5,43.5v32.94h7.11V53.67c0-0.55,0.45-1,1-1h5.84
		V48.88z"/>
	<path class="st7" d="M50.46,48.88v3.79h4.19V43.5l-2.69-2.69C50.97,42.94,50.46,45.63,50.46,48.88z"/>
	<path class="st7" d="M76.38,52.67H40.61c-0.55,0-1,0.45-1,1v22.77h37.77V53.67C77.38,53.12,76.94,52.67,76.38,52.67z"/>
	<path class="st7" d="M66.44,61.32V59.3c0-0.58,0.47-1.05,1.05-1.05h2.02c0.58,0,1.05,0.47,1.05,1.05v2.02
		c0,0.58-0.47,1.05-1.05,1.05h-2.02C66.91,62.36,66.44,61.9,66.44,61.32z"/>
	<path class="st7" d="M59.59,61.32V59.3c0-0.58,0.47-1.05,1.05-1.05h2.02c0.58,0,1.05,0.47,1.05,1.05v2.02
		c0,0.58-0.47,1.05-1.05,1.05h-2.02C60.06,62.36,59.59,61.9,59.59,61.32z"/>
	<path class="st7" d="M52.83,61.32V59.3c0-0.58,0.47-1.05,1.05-1.05h2.02c0.58,0,1.05,0.47,1.05,1.05v2.02
		c0,0.58-0.47,1.05-1.05,1.05h-2.02C53.3,62.36,52.83,61.9,52.83,61.32z"/>
	<path class="st7" d="M46.07,61.32V59.3c0-0.58,0.47-1.05,1.05-1.05h2.02c0.58,0,1.05,0.47,1.05,1.05v2.02
		c0,0.58-0.47,1.05-1.05,1.05h-2.02C46.54,62.36,46.07,61.9,46.07,61.32z"/>
	<g>
		<g>
			<line class="st7" x1="25.28" y1="76.44" x2="25.28" y2="75.94"/>
			<line class="st8" x1="25.28" y1="73.98" x2="25.28" y2="22.04"/>
			<line class="st7" x1="25.28" y1="21.06" x2="25.28" y2="20.56"/>
		</g>
	</g>
	<g>
		<g>
			<line class="st7" x1="72.83" y1="52.67" x2="72.83" y2="52.17"/>
			<line class="st9" x1="72.83" y1="50.23" x2="72.83" y2="27.91"/>
			<line class="st7" x1="72.83" y1="26.94" x2="72.83" y2="26.44"/>
		</g>
	</g>
</g>
</svg>
