<?xml version="1.0" encoding="UTF-8" standalone="no"?>
<!-- Created with Inkscape (http://www.inkscape.org/) -->

<svg
   xmlns:dc="http://purl.org/dc/elements/1.1/"
   xmlns:cc="http://creativecommons.org/ns#"
   xmlns:rdf="http://www.w3.org/1999/02/22-rdf-syntax-ns#"
   xmlns:svg="http://www.w3.org/2000/svg"
   xmlns="http://www.w3.org/2000/svg"
   xmlns:xlink="http://www.w3.org/1999/xlink"
   xmlns:sodipodi="http://sodipodi.sourceforge.net/DTD/sodipodi-0.dtd"
   xmlns:inkscape="http://www.inkscape.org/namespaces/inkscape"
   width="285.14566"
   height="299.34134"
   id="svg2"
   version="1.1"
   inkscape:version="0.47pre4 r22446"
   sodipodi:docname="television_comic_2.svg">
  <defs
     id="defs4">
    <linearGradient
       inkscape:collect="always"
       id="linearGradient3839">
      <stop
         style="stop-color:#2e3436;stop-opacity:1"
         offset="0"
         id="stop3841" />
      <stop
         style="stop-color:#555753;stop-opacity:1"
         offset="1"
         id="stop3843" />
    </linearGradient>
    <inkscape:perspective
       sodipodi:type="inkscape:persp3d"
       inkscape:vp_x="0 : 526.18109 : 1"
       inkscape:vp_y="0 : 1000 : 0"
       inkscape:vp_z="744.09448 : 526.18109 : 1"
       inkscape:persp3d-origin="372.04724 : 350.78739 : 1"
       id="perspective10" />
    <inkscape:perspective
       id="perspective9095"
       inkscape:persp3d-origin="372.04724 : 350.78739 : 1"
       inkscape:vp_z="744.09448 : 526.18109 : 1"
       inkscape:vp_y="0 : 1000 : 0"
       inkscape:vp_x="0 : 526.18109 : 1"
       sodipodi:type="inkscape:persp3d" />
    <inkscape:perspective
       id="perspective2985"
       inkscape:persp3d-origin="0.5 : 0.33333333 : 1"
       inkscape:vp_z="1 : 0.5 : 1"
       inkscape:vp_y="0 : 1000 : 0"
       inkscape:vp_x="0 : 0.5 : 1"
       sodipodi:type="inkscape:persp3d" />
    <linearGradient
       inkscape:collect="always"
       xlink:href="#linearGradient3839"
       id="linearGradient3845"
       x1="106.14554"
       y1="281.03445"
       x2="106.14554"
       y2="224.00177"
       gradientUnits="userSpaceOnUse"
       gradientTransform="translate(2,1)" />
  </defs>
  <sodipodi:namedview
     id="base"
     pagecolor="#ffffff"
     bordercolor="#666666"
     borderopacity="1.0"
     inkscape:pageopacity="0.0"
     inkscape:pageshadow="2"
     inkscape:zoom="0.5"
     inkscape:cx="151.11037"
     inkscape:cy="223.33008"
     inkscape:document-units="px"
     inkscape:current-layer="layer1"
     showgrid="false"
     inkscape:window-width="1280"
     inkscape:window-height="950"
     inkscape:window-x="0"
     inkscape:window-y="25"
     inkscape:window-maximized="1" />
  <metadata
     id="metadata7">
    <rdf:RDF>
      <cc:Work
         rdf:about="">
        <dc:format>image/svg+xml</dc:format>
        <dc:type
           rdf:resource="http://purl.org/dc/dcmitype/StillImage" />
        <dc:title />
      </cc:Work>
    </rdf:RDF>
  </metadata>
  <g
     inkscape:label="Capa 1"
     inkscape:groupmode="layer"
     id="layer1"
     transform="translate(1.2734396,-7.5796926)">
    <path
       style="fill:#a29f9f;fill-opacity:1;stroke:none"
       d="m 88.627904,251.13247 -12.59552,0 c -3.280236,0 -8.161823,1.75437 -8.921589,4.94539 l -7.846743,22.69257 c -0.759774,3.19103 5.342261,6.57456 8.622493,6.57456 l 12.595519,0 c 3.28023,0 6.53265,-2.56895 7.29242,-5.75999 l 5.40298,-22.69255 c 0.75978,-3.19103 -1.26933,-5.75998 -4.54956,-5.75998 z"
       id="path3868"
       sodipodi:nodetypes="ccccccccc" />
    <path
       style="fill:#ffffff;fill-opacity:1;stroke:none"
       d="m 87.165954,275.84392 c -5.13339,5.08659 -1.15147,4.07894 -12.449002,7.35022 l 5.758722,1.01823 c 2.88331,0 8.25314,-2.96798 7.58531,-5.77289 l -0.89503,-2.59556 z"
       id="path3870"
       sodipodi:nodetypes="ccccc" />
    <path
       sodipodi:nodetypes="ccccccccc"
       id="path3859"
       d="m 207.11752,255.9713 14.16091,0 c 3.6879,0 9.17617,1.9724 10.03036,5.56001 l 8.82194,25.51281 c 0.8542,3.58761 -6.0062,7.39165 -9.6941,7.39165 l -14.1609,0 c -3.6879,0 -7.34454,-2.88822 -8.19873,-6.47584 l -6.07447,-25.5128 c -0.8542,-3.58761 1.42709,-6.47583 5.11499,-6.47583 z"
       style="fill:#a29f9f;fill-opacity:1;stroke:none" />
    <path
       sodipodi:nodetypes="ccccc"
       id="path3861"
       d="m 237.72421,283.40035 c -5.77137,5.71875 -1.29457,4.58587 -13.99617,8.26371 l 6.47442,1.14478 c 3.24165,0 9.27884,-3.33685 8.52801,-6.49035 l -1.00626,-2.91814 z"
       style="fill:#ffffff;fill-opacity:1;stroke:none" />
    <g
       transform="matrix(-1,0,0,1,292.81113,-41.941126)"
       id="g3808">
      <path
         style="fill:#b9b8b8;fill-opacity:1;stroke:none"
         d="m 237.26874,294.86217 15.46253,0 c 4.02688,0 10.01962,2.1537 10.95232,6.07107 l 9.63283,27.85787 c 0.93271,3.91737 -6.55827,8.07106 -10.58515,8.07106 l -15.46253,0 c -4.02688,0 -8.01962,-3.15369 -8.95233,-7.07107 l -6.63282,-27.85786 c -0.93271,-3.91737 1.55827,-7.07107 5.58515,-7.07107 z"
         id="path3810"
         sodipodi:nodetypes="ccccccccc" />
      <path
         style="fill:#ffffff;fill-opacity:1;stroke:none"
         d="m 240.57469,324.31241 c 6.30186,6.2444 1.41356,5.00739 15.28266,9.02329 l -7.06953,1.25 c -3.53962,0 -10.13173,-3.64356 -9.31188,-7.08692 l 1.09875,-3.18637 z"
         id="path3812"
         sodipodi:nodetypes="ccccc" />
      <path
         style="fill:#a29f9f;fill-opacity:1;stroke:none"
         d="m 238.83529,297.54599 c -3.42852,0 -5.55669,2.6778 -4.76257,6.01308 l 5.59741,18.18784 c 0,0 17.64973,-5.53867 26.64973,-4.53867 l -5.00203,-14.50058 c -0.79411,-3.33528 -5.91038,-5.16167 -9.3389,-5.16167 l -13.14364,0 z"
         id="path3814"
         sodipodi:nodetypes="ccccccc" />
    </g>
    <g
       id="g3852"
       transform="translate(-22,4)">
      <path
         sodipodi:nodetypes="ccccccccc"
         id="rect3790"
         d="m 195.19589,260.92104 15.46253,0 c 4.02688,0 10.01962,2.1537 10.95232,6.07107 l 9.63283,27.85787 c 0.93271,3.91737 -6.55827,8.07106 -10.58515,8.07106 l -15.46253,0 c -4.02688,0 -8.01962,-3.15369 -8.95233,-7.07107 l -6.63282,-27.85786 c -0.93271,-3.91737 1.55827,-7.07107 5.58515,-7.07107 z"
         style="fill:#b9b8b8;fill-opacity:1;stroke:none" />
      <path
         sodipodi:nodetypes="ccccc"
         id="path3793"
         d="m 228.61585,290.87128 c -6.30186,6.2444 -1.41356,5.00739 -15.28266,9.02329 l 7.06953,1.25 c 3.53962,0 10.13173,-3.64356 9.31188,-7.08692 l -1.09875,-3.18637 z"
         style="fill:#ffffff;fill-opacity:1;stroke:none" />
      <path
         id="path3798"
         d="m 196.76244,263.60486 c -3.42852,0 -5.55669,2.6778 -4.76257,6.01308 l 4.09741,17.18784 28.14973,-3.53867 -5.00203,-14.50058 c -0.79411,-3.33528 -5.91038,-5.16167 -9.3389,-5.16167 l -13.14364,0 z"
         style="fill:#a29f9f;fill-opacity:1;stroke:none" />
    </g>
    <path
       sodipodi:type="arc"
       style="fill:#b9b8b8;fill-opacity:1;fill-rule:nonzero;stroke:none;stroke-width:3;marker:none;visibility:visible;display:inline;overflow:visible"
       id="path9062"
       sodipodi:cx="381"
       sodipodi:cy="350.36218"
       sodipodi:rx="51"
       sodipodi:ry="31"
       d="m 432,350.36218 c 0,17.12083 -22.83348,31 -51,31 -28.16652,0 -51,-13.87917 -51,-31 0,-17.12082 22.83348,-31 51,-31 28.16652,0 51,13.87918 51,31 z"
       transform="translate(-252.31203,-246.78229)" />
    <path
       style="fill:#00c4cc;fill-opacity:1;fill-rule:nonzero;stroke:none;stroke-width:3;marker:none;visibility:visible;display:inline;overflow:visible"
       d="M 27.860234,121.00823 C 60.800955,103.15109 238.8377,48.29395 270.20982,124.00824 303.15054,214.72252 267.42223,254.39185 257.66097,265.43681 229.42606,293.29395 89.82016,291.15109 14.527082,258.29395 -19.982243,201.86538 10.221378,130.57024 27.860234,121.00823 z"
       id="path9046"
       sodipodi:nodetypes="ccccc" />
    <path
       sodipodi:nodetypes="ccccc"
       id="path9048"
       d="m 33.52224,139.62148 c 21.57487,-13.91949 138.1819,-61.32628 158.7294,-2.30761 21.57486,70.71104 -1.82576,101.63296 -8.21901,110.24242 -18.49275,21.71441 -109.92909,14.04407 -159.24308,-11.56781 -22.60224,-43.9856 -2.82007,-88.91349 8.73269,-96.367 z"
       style="fill:#555753;fill-opacity:1;fill-rule:nonzero;stroke:none;stroke-width:3;marker:none;visibility:visible;display:inline;overflow:visible" />
    <path
       style="fill:#888a85;fill-opacity:1;fill-rule:nonzero;stroke:none;stroke-width:3;marker:none;visibility:visible;display:inline;overflow:visible"
       d="m 35.56741,141.3157 c -2.501623,3.25371 -5.711365,11.04353 -7.46875,16.1875 -2.65413,8.18442 -4.87834,18.52265 -5.96875,29.53125 26.595002,-1.74641 50.938118,-16.04277 73.46875,-28.96875 35.12308,-21.94865 77.46875,-3.34375 77.46875,-3.34375 14.14214,-37.64823 -14.39889,-41.70463 -14.39889,-41.70463 -48.16963,-1.26998 -82.468162,8.79593 -123.10111,28.29838 z"
       id="path9055"
       sodipodi:nodetypes="ccccccc" />
    <path
       style="fill:#b9b8b8;fill-opacity:1;fill-rule:nonzero;stroke:none;stroke-width:3;marker:none;visibility:visible;display:inline;overflow:visible"
       d="m 138.68795,76.57966 60,-62 3,10 -57.54003,53.95487 -5.45997,-1.95487 z"
       id="path9064"
       sodipodi:nodetypes="ccccc" />
    <path
       sodipodi:type="arc"
       style="fill:#b9b8b8;fill-opacity:1;fill-rule:nonzero;stroke:none;stroke-width:3;marker:none;visibility:visible;display:inline;overflow:visible"
       id="path9066"
       sodipodi:cx="491.5"
       sodipodi:cy="342.36218"
       sodipodi:rx="13.5"
       sodipodi:ry="11"
       d="m 505,342.36218 c 0,6.07513 -6.04416,11 -13.5,11 -7.45584,0 -13.5,-4.92487 -13.5,-11 0,-6.07513 6.04416,-11 13.5,-11 7.45584,0 13.5,4.92487 13.5,11 z"
       transform="translate(-289.31203,-323.78249)" />
    <path
       id="path9068"
       d="m 124.68795,86.57966 -55,-53 -2,7 46.87297,41.53784 10.12703,4.46216 z"
       style="fill:#b9b8b8;fill-opacity:1;fill-rule:nonzero;stroke:none;stroke-width:3;marker:none;visibility:visible;display:inline;overflow:visible"
       sodipodi:nodetypes="ccccc" />
    <path
       transform="matrix(-0.87037,0,0,0.87037,499.72547,-259.47629)"
       d="m 505,342.36218 c 0,6.07513 -6.04416,11 -13.5,11 -7.45584,0 -13.5,-4.92487 -13.5,-11 0,-6.07513 6.04416,-11 13.5,-11 7.45584,0 13.5,4.92487 13.5,11 z"
       sodipodi:ry="11"
       sodipodi:rx="13.5"
       sodipodi:cy="342.36218"
       sodipodi:cx="491.5"
       id="path9070"
       style="fill:#b9b8b8;fill-opacity:1;fill-rule:nonzero;stroke:none;stroke-width:3;marker:none;visibility:visible;display:inline;overflow:visible"
       sodipodi:type="arc" />
    <path
       style="fill:#007880;fill-opacity:1;fill-rule:nonzero;stroke:none;stroke-width:3;marker:none;visibility:visible;display:inline;overflow:visible"
       d="m 234.14934,255.2132 c -20.34774,-0.81825 0.53224,6.77641 -19.48468,7.85111 -26.09091,0.65755 -51.42906,7.42492 -77.42534,5.87064 -39.552272,-2.36477 -79.698289,-14.23062 -119.012156,-19.27689 33.34935,15.11479 83.247296,31.70005 125.054536,32.80942 21.57316,0.57245 63.9254,-2.10647 80.15866,-5.23896 16.13888,-3.11428 27.39947,-12.09159 32.81311,-17.86396 6.89547,-6.95274 -12.79903,-3.78238 -22.10413,-4.15136 z"
       id="path9082"
       sodipodi:nodetypes="ccscsscc" />
    <path
       style="fill:#a8dde0;fill-opacity:1;fill-rule:nonzero;stroke:none;stroke-width:3;marker:none;visibility:visible;display:inline;overflow:visible"
       d="m 148.24321,96.70537 c -44.85732,0.26332 -94.321797,15.40163 -108.549107,23.87027 -2.23247,1.32884 -4.72807,4.36743 -7.21905,8.69446 C 58.183193,115.20537 163.64113,86.954641 214.87445,116.41283 199.83856,101.6121 174.84621,96.5492 148.24321,96.70537 z"
       id="path3006" />
    <path
       style="fill:#a29f9f;fill-opacity:1;stroke:none"
       d="m 75.25,31.862182 c 0,0 6.25,0.5 6,4.5 -0.25,4 -2.75,6.5 -2.75,6.5 l -4.5,-3.25 c 0,0 4.75,-4.5 1.25,-7.75 z"
       id="path3819" />
    <path
       id="path3821"
       d="m 207.12918,11.612182 c 0,0 6.8959,0.534091 6.62007,4.806818 -0.27584,4.272727 -3.0342,6.943182 -3.0342,6.943182 L 205.75,19.890591 c 0,0 5.24088,-4.806818 1.37918,-8.278409 z"
       style="fill:#a29f9f;fill-opacity:1;stroke:none" />
    <path
       style="fill:#a29f9f;fill-opacity:1;stroke:none"
       d="m 76.544309,47.254941 c 0.707107,0 4.419418,-2.298098 4.419418,-2.298098 l -1.944544,4.596195 -2.474874,-2.298097 z"
       id="path3823" />
    <path
       style="fill:#a29f9f;fill-opacity:1;stroke:none"
       d="m 196.625,28.737181 c 0,0 -5.75,-3 -5.875,-4 -0.125,-1 1.5,5.75 -0.25,7.375 -1.75,1.625 -2.5,4 -2.5,4 l 8.625,-7.375 z"
       id="path3827"
       sodipodi:nodetypes="csscc" />
    <path
       style="fill:#a29f9f;fill-opacity:1;stroke:none"
       d="m 148.59375,75.875 -0.25,0.28125 c -0.0311,-0.0055 -0.0627,-0.0259 -0.0937,-0.03125 l 0.0625,0.0625 -4.375,4.8125 10.8125,4.125 c 0,0 7.25,0 10.75,0.5 0.48685,-3.407955 -9.44007,-8.013074 -16.65625,-9.40625 l -0.25,-0.34375 z"
       id="path3829"
       sodipodi:nodetypes="ccccccccc" />
    <path
       sodipodi:nodetypes="ccc"
       id="path3831"
       d="m 101.00879,80.112182 c 0,0 -16.75,4 -21,20.749998 3.5,-0.5 6.911165,-1.775124 6.911165,-1.775124"
       style="fill:#ffffff;fill-opacity:1;stroke:none" />
    <path
       id="path3837"
       d="m 128.47366,258.03159 c -17.856,-0.11361 -37.24307,-3.49134 -53.40625,-7.8125 -16.16318,-4.32116 -29.73724,-10.10363 -33.5,-12.53125 1.19232,0.76925 -0.70084,-0.72224 -2.3125,-3.6875 -1.61166,-2.96526 -3.46955,-7.2988 -5.15625,-12.5 -2.65413,-8.18442 -4.87834,-18.52265 -5.96875,-29.53125 1.47053,0.0251 2.98698,0.0698 5.125,0.375 11.05324,1.57789 31.44959,8.03795 64.34375,28.59375 35.12308,21.94865 66.51565,14.21935 85.96875,0.34375 1.63153,-1.16374 3.09732,-2.40142 4.59375,-3.625 -1.06432,4.52165 -2.32998,9.22616 -3.84375,14.1875 -3.50291,10.06142 -9.76151,15.68116 -19.40625,20 -9.64474,4.31884 -22.54864,6.27587 -36.4375,6.1875 z"
       style="fill:url(#linearGradient3845);fill-opacity:1;fill-rule:nonzero;stroke:none;stroke-width:3;marker:none;visibility:visible;display:inline;overflow:visible" />
    <path
       transform="matrix(0.88112718,0,0,0.71794869,81.27486,-193.62111)"
       sodipodi:type="arc"
       style="fill:#007880;fill-opacity:1;stroke:none"
       id="path3945"
       sodipodi:cx="150.9673"
       sodipodi:cy="475.00949"
       sodipodi:rx="13.788582"
       sodipodi:ry="19.445436"
       d="m 164.75588,475.00949 c 0,10.73942 -6.17336,19.44544 -13.78858,19.44544 -7.61522,0 -13.78858,-8.70602 -13.78858,-19.44544 0,-10.73942 6.17336,-19.44544 13.78858,-19.44544 7.61522,0 13.78858,8.70602 13.78858,19.44544 z" />
    <path
       style="fill:#00a7b3;fill-opacity:1;fill-rule:nonzero;stroke:none;stroke-width:3;marker:none;visibility:visible;display:inline;overflow:visible"
       d="m 220.71293,107.40114 c 34.14721,90.26705 2.18404,144.03468 -7.57722,155.07964 0,0 19.53125,8.46875 39.03125,-0.0312 9.76126,-11.04496 49.85065,-59.12271 7.71754,-151.25121 0,0 -25.17157,-20.79718 -39.17157,-3.79718 l 0,-5e-5 z"
       id="path3847"
       sodipodi:nodetypes="cccccc" />
    <g
       id="g3921"
       transform="matrix(0.62479928,0,0,0.50909089,90.282033,-99.39999)">
      <path
         transform="matrix(1.4102564,0,0,1.4102564,-19.508898,-190.63305)"
         sodipodi:type="arc"
         style="fill:#545454;fill-opacity:1;stroke:none"
         id="path3904"
         sodipodi:cx="150.9673"
         sodipodi:cy="475.00949"
         sodipodi:rx="13.788582"
         sodipodi:ry="19.445436"
         d="m 164.75588,475.00949 c 0,10.73942 -6.17336,19.44544 -13.78858,19.44544 -7.61522,0 -13.78858,-8.70602 -13.78858,-19.44544 0,-10.73942 6.17336,-19.44544 13.78858,-19.44544 7.61522,0 13.78858,8.70602 13.78858,19.44544 z" />
      <path
         transform="translate(36.769553,4.2426407)"
         d="m 164.75588,475.00949 c 0,10.73942 -6.17336,19.44544 -13.78858,19.44544 -7.61522,0 -13.78858,-8.70602 -13.78858,-19.44544 0,-10.73942 6.17336,-19.44544 13.78858,-19.44544 7.61522,0 13.78858,8.70602 13.78858,19.44544 z"
         sodipodi:ry="19.445436"
         sodipodi:rx="13.788582"
         sodipodi:cy="475.00949"
         sodipodi:cx="150.9673"
         id="path3902"
         style="fill:#cacaca;fill-opacity:1;stroke:none"
         sodipodi:type="arc" />
      <path
         sodipodi:nodetypes="ccssc"
         inkscape:transform-center-y="-20.506097"
         inkscape:transform-center-x="57.275649"
         id="path3906"
         d="m 201.23644,475.38049 c 0,0 -9.25003,-3.94423 -25.51349,9.4908 0.11883,10.59473 4.47256,13.8217 12.01349,13.8217 7.61522,0 13.78125,-8.69808 13.78125,-19.4375 0,-1.32105 -0.10324,-2.62791 -0.28125,-3.875 z"
         style="fill:#a0a1a1;fill-opacity:1;stroke:none" />
      <path
         sodipodi:nodetypes="cccz"
         id="path3913"
         d="m 201.15595,454.75524 c -1.875,0.9375 -9.00489,4.81923 -9.00489,4.81923 4,0.75 5.36397,4.63908 5.36397,4.63908 1.5,-1.5 5.4816,-5.0729 8.3566,-4.6354"
         style="fill:#cacaca;fill-opacity:1;stroke:none" />
      <path
         style="fill:#2e3436;fill-opacity:1;stroke:none"
         d="m 198.32752,504.78304 c -1.875,0.9375 -6.35324,-6.3177 -6.35324,-6.3177 0.81802,1.28033 -5.59618,1.10355 -5.59618,1.10355 1.5,-1.5 1.41573,5.88725 4.29073,6.32475"
         id="path3915"
         sodipodi:nodetypes="cccz" />
      <path
         sodipodi:nodetypes="cscsc"
         id="path3919"
         d="m 196.75,495.86218 c 0,0 3.625,-2.875 3.375,-4.375 -0.25,-1.5 7.75,3.875 7.75,3.875 0,0 -2.25,5.625 -4.875,5.5 -2.18056,-0.10384 -5.75,-4.875 -6.25,-5 z"
         style="fill:#a0a1a1;fill-opacity:1;stroke:none" />
    </g>
    <path
       d="m 164.75588,475.00949 c 0,10.73942 -6.17336,19.44544 -13.78858,19.44544 -7.61522,0 -13.78858,-8.70602 -13.78858,-19.44544 0,-10.73942 6.17336,-19.44544 13.78858,-19.44544 7.61522,0 13.78858,8.70602 13.78858,19.44544 z"
       sodipodi:ry="19.445436"
       sodipodi:rx="13.788582"
       sodipodi:cy="475.00949"
       sodipodi:cx="150.9673"
       id="path3963"
       style="fill:#007880;fill-opacity:1;stroke:none"
       sodipodi:type="arc"
       transform="matrix(0.88112718,0,0,0.71794869,86.931714,-144.12364)" />
    <g
       transform="matrix(0.62479928,0,0,0.50909089,96.0498,-50.09669)"
       id="g3929">
      <path
         d="m 164.75588,475.00949 c 0,10.73942 -6.17336,19.44544 -13.78858,19.44544 -7.61522,0 -13.78858,-8.70602 -13.78858,-19.44544 0,-10.73942 6.17336,-19.44544 13.78858,-19.44544 7.61522,0 13.78858,8.70602 13.78858,19.44544 z"
         sodipodi:ry="19.445436"
         sodipodi:rx="13.788582"
         sodipodi:cy="475.00949"
         sodipodi:cx="150.9673"
         id="path3931"
         style="fill:#545454;fill-opacity:1;stroke:none"
         sodipodi:type="arc"
         transform="matrix(1.4102564,0,0,1.4102564,-19.508898,-190.63305)" />
      <path
         sodipodi:type="arc"
         style="fill:#cacaca;fill-opacity:1;stroke:none"
         id="path3933"
         sodipodi:cx="150.9673"
         sodipodi:cy="475.00949"
         sodipodi:rx="13.788582"
         sodipodi:ry="19.445436"
         d="m 164.75588,475.00949 c 0,10.73942 -6.17336,19.44544 -13.78858,19.44544 -7.61522,0 -13.78858,-8.70602 -13.78858,-19.44544 0,-10.73942 6.17336,-19.44544 13.78858,-19.44544 7.61522,0 13.78858,8.70602 13.78858,19.44544 z"
         transform="translate(36.769553,4.2426407)" />
      <path
         style="fill:#a0a1a1;fill-opacity:1;stroke:none"
         d="m 201.23644,475.38049 c 0,0 -9.25003,-3.94423 -25.51349,9.4908 0.11883,10.59473 4.47256,13.8217 12.01349,13.8217 7.61522,0 13.78125,-8.69808 13.78125,-19.4375 0,-1.32105 -0.10324,-2.62791 -0.28125,-3.875 z"
         id="path3935"
         inkscape:transform-center-x="57.275649"
         inkscape:transform-center-y="-20.506097"
         sodipodi:nodetypes="ccssc" />
      <path
         style="fill:#cacaca;fill-opacity:1;stroke:none"
         d="m 201.15595,454.75524 c -1.875,0.9375 -9.00489,4.81923 -9.00489,4.81923 4,0.75 5.36397,4.63908 5.36397,4.63908 1.5,-1.5 5.4816,-5.0729 8.3566,-4.6354"
         id="path3937"
         sodipodi:nodetypes="cccz" />
      <path
         sodipodi:nodetypes="cccz"
         id="path3939"
         d="m 198.32752,504.78304 c -1.875,0.9375 -6.35324,-6.3177 -6.35324,-6.3177 0.81802,1.28033 -5.59618,1.10355 -5.59618,1.10355 1.5,-1.5 1.41573,5.88725 4.29073,6.32475"
         style="fill:#2e3436;fill-opacity:1;stroke:none" />
      <path
         style="fill:#a0a1a1;fill-opacity:1;stroke:none"
         d="m 196.75,495.86218 c 0,0 3.625,-2.875 3.375,-4.375 -0.25,-1.5 7.75,3.875 7.75,3.875 0,0 -2.25,5.625 -4.875,5.5 -2.18056,-0.10384 -5.75,-4.875 -6.25,-5 z"
         id="path3941"
         sodipodi:nodetypes="cscsc" />
    </g>
    <path
       style="fill:#a8dde0;fill-opacity:1;stroke:none"
       d="m 239.71305,101.68295 c 0,0 -18.6124,-6.788137 -18.56365,10.01953 0.0487,16.80766 0.42154,-13.640834 18.56365,-10.01953 z"
       id="path2880" />
    <path
       style="fill:#ffffff;fill-opacity:1;stroke:none"
       d="m 62.332732,39.051001 c -1.638252,-4.108132 2.538439,-6.463466 2.538439,-6.463466 2.14944,0.06929 5.904604,2.942433 5.904604,2.942433 0,0 -3.49602,1.26334 -3.085162,6.191018 0,0 -2.380975,-2.617701 -5.357881,-2.669985 z"
       id="rect3654"
       sodipodi:nodetypes="ccccc" />
    <path
       sodipodi:nodetypes="ccccc"
       id="path3657"
       d="m 191.37972,18.191351 c -1.63825,-4.108132 2.53844,-6.463466 2.53844,-6.463466 2.14944,0.06929 5.9046,2.942433 5.9046,2.942433 0,0 -3.49602,1.26334 -3.08516,6.191018 0,0 -2.38097,-2.617701 -5.35788,-2.669985 z"
       style="fill:#ffffff;fill-opacity:1;stroke:none" />
  </g>
</svg>
